<?xml version="1.0" standalone="no"?><!-- Generator: Gravit.io -->
<svg xmlns="http://www.w3.org/2000/svg" xmlns:xlink="http://www.w3.org/1999/xlink" style="isolation:isolate"
     viewBox="0 0 1000 1000" width="100%" height="100%">
    <defs>
        <clipPath id="_clipPath_DAkq6CtiQGHjhEywbvP6GslIg1PZWtEu">
            <rect width="1000" height="1000"/>
        </clipPath>
    </defs>
    <g clip-path="url(#_clipPath_DAkq6CtiQGHjhEywbvP6GslIg1PZWtEu)">
        <path d=" M 500 9.9 C 229.4 9.9 10 229.3 10 500 C 10 580.3 29.6 655.8 63.8 722.7 C 65.2 726.6 67 730.3 69.4 733.6 C 69.9 734.4 70.3 735.3 70.7 736.2 L 71.2 735.8 C 79.3 745.9 91.7 752.5 105.7 752.5 C 130.3 752.5 150.2 732.6 150.2 707.9 L 149.8 703.8 C 149.8 691.8 145 680.9 137.2 672.9 L 137.2 672.9 C 112.7 620.9 97.7 560.7 97.7 499.5 C 97.7 277.7 277.5 97.8 499.3 97.8 C 721.1 97.8 900.9 277.6 900.9 499.5 C 900.9 721.3 721.1 901.2 499.3 901.2 C 410.4 901.2 328.5 872 262 823.1 L 261.6 823.5 C 253.7 815.7 243 810.9 231 810.9 C 207 810.9 187.5 830.4 187.5 854.4 L 187.9 858.4 C 187.9 877.3 200 893.2 216.8 899.2 C 296.8 956.2 394.2 990.2 499.9 990.2 C 770.5 990.2 989.9 770.8 989.9 500.1 C 990 229.3 770.6 9.9 500 9.9 Z "
              fill="rgb(48,137,51)"/>
        <path d=" M 421.4 710.3 C 426 714.9 431.4 718.3 437 720.6 C 437.1 720.6 437.1 720.6 437.2 720.7 C 439.7 721.7 442.4 722.5 445 723 C 445.7 723.2 446.5 723.2 447.2 723.3 C 449.1 723.6 451.1 723.8 453 723.8 C 455.3 723.8 457.6 723.6 459.9 723.3 C 460.2 723.2 460.4 723.3 460.7 723.2 C 469.7 721.8 478.3 717.7 485.2 710.8 L 755 440.8 C 772.4 423.4 773.4 396.2 756 378.8 C 738.6 361.4 710.4 361.4 693 378.8 L 452.8 617.6 L 303.5 468.1 C 286.1 450.7 257.9 450.7 240.5 468.1 C 223.1 485.5 223.1 513.7 240.5 531.1 L 421.4 710.3 L 421.4 710.3 Z "
              fill="rgb(48,137,51)" style="mix-blend-mode:color-burn;"/>
    </g>
</svg>