<?xml version="1.0" standalone="no"?><!-- Generator: Gravit.io -->
<svg xmlns="http://www.w3.org/2000/svg" xmlns:xlink="http://www.w3.org/1999/xlink" style="isolation:isolate"
     viewBox="0 0 1000 1000" width="100%" height="100%">
    <defs>
        <clipPath id="_clipPath_wumzTPhAX1NJ7QMfkgplsvI9S72XqqXc">
            <rect width="1000" height="1000"/>
        </clipPath>
    </defs>
    <g clip-path="url(#_clipPath_wumzTPhAX1NJ7QMfkgplsvI9S72XqqXc)">
        <path d=" M 978.4 214.8 C 978.4 235.4 961.7 252 941.2 252 L 58.9 252 C 38.3 252 21.7 235.3 21.7 214.8 L 21.7 205.5 C 21.7 184.9 38.4 168.3 58.9 168.3 L 941.1 168.3 C 961.7 168.3 978.3 185 978.3 205.5 L 978.4 214.8 L 978.4 214.8 Z "
              fill="rgb(22,83,110)"/>
        <path d=" M 603.6 11 L 359.2 11 C 252.1 41.3 273 169.3 273 169.3 L 671.1 169.3 C 694.4 20.3 603.6 11 603.6 11 Z  M 603.7 162.5 L 341.1 162.5 C 341.1 162.5 327.3 82.7 397.9 62.7 L 559.1 62.7 C 559.2 62.7 619.1 64.2 603.7 162.5 Z "
              fill="rgb(22,83,110)"/>
        <path d=" M 823 311.2 C 822.2 311.1 821.3 311.1 820.5 311.1 L 776.5 311.1 C 760.4 311.1 746.6 321.2 741.1 335.4 L 741.1 873.8 C 741.1 895.2 723.8 912.5 702.4 912.5 C 681 912.5 660.6 895.2 660.6 873.8 L 660.6 334 C 653.5 320.5 639.3 311.3 624.6 311.3 L 581.7 311.3 C 562.5 311.3 548.9 322.1 542.5 337.5 L 542.5 873.8 C 542.5 895.2 520.5 912.5 499.1 912.5 C 477.7 912.5 458.8 895.2 458.8 873.8 L 458.8 337 C 452.3 321.9 435.7 311.3 418.2 311.3 L 376.8 311.3 C 361.5 311.3 348.1 319.4 340.6 331.6 L 340.6 873.8 C 340.6 895.2 318.6 912.5 297.2 912.5 C 275.8 912.5 258.5 895.2 258.5 873.8 L 258.5 335.2 C 252.3 321.1 238.1 311.2 221.7 311.2 L 176.9 311.2 C 156.7 315.3 141.5 333.1 141.5 354.5 L 141.5 945.7 C 141.5 970.1 161.3 989.9 185.7 989.9 L 814.2 989.9 C 838.6 989.9 858.4 970.1 858.4 945.7 L 858.4 354.5 C 858.5 333.1 843.2 315.2 823 311.2 Z "
              fill="rgb(22,83,110)"/>
    </g>
</svg>