<svg xmlns="http://www.w3.org/2000/svg" viewBox="0 0 100 100">
    <path d=" M 79.323 79.323 L 20.668 79.323 L 20.668 20.668 L 63.334 20.668 L 63.334 10 L 12.669 10 C 11.192 10 10 11.192 10 12.669 L 10 87.331 C 10 88.8 11.192 90 12.669 90 L 87.331 90 C 88.8 90 90 88.808 90 87.331 L 90 36.666 L 79.323 36.666 L 79.323 79.323 Z "
          fill="rgb(22,83,110)"/>
    <path d=" M 89.208 14.554 L 85.438 10.783 C 84.393 9.739 82.711 9.739 81.666 10.783 L 49.621 42.83 L 57.162 50.371 L 89.208 18.326 C 90.253 17.281 90.253 15.591 89.208 14.554 Z "
          fill="rgb(22,83,110)"/>
    <path d=" M 42.078 57.914 L 54.567 55.318 L 44.666 45.425 L 42.078 57.914 Z " fill="rgb(22,83,110)"/>
</svg>