<?xml version="1.0" encoding="UTF-8" standalone="no"?><!-- Generator: Gravit.io -->
<svg xmlns="http://www.w3.org/2000/svg" xmlns:xlink="http://www.w3.org/1999/xlink" style="isolation:isolate"
     viewBox="0 0 1000 1000" width="100%" height="100%">
    <defs>
        <clipPath id="_clipPath_HSeOWWPb1D89Dui8a6IZzj6Ip45598l6">
            <rect width="1000" height="1000"/>
        </clipPath>
    </defs>
    <g clip-path="url(#_clipPath_HSeOWWPb1D89Dui8a6IZzj6Ip45598l6)">
        <path d=" M 255.4 332.6 C 253.8 334.1 253.2 336.4 254 338.6 C 254.8 340.8 256.9 342.1 259.1 342.1 L 410.9 342.1 L 410.6 590.4 C 410.6 594.6 412.2 598.8 415.4 602 C 418.6 605.2 422.8 606.8 427 606.8 L 575.7 606.8 C 579.9 606.8 584.1 605.2 587.3 602 C 590.5 598.8 592.1 594.6 592.1 590.4 L 591.8 342.1 L 743.6 342.1 C 745.8 342.1 747.8 340.8 748.7 338.6 C 749.5 336.5 748.9 334.1 747.3 332.6 L 512.3 115 C 509.4 112.3 505.5 110.6 501.2 110.6 C 496.9 110.6 493 112.3 490.1 115 L 255.4 332.6 L 255.4 332.6 L 255.4 332.6 Z  M 979.6 661.4 L 832.5 547.7 C 824.2 541.2 808.7 535.9 798.1 535.9 L 712.9 535.9 L 854.7 677.2 L 713.3 677.2 L 641.3 779.5 L 358 779.5 L 289.1 677.2 L 147.7 677.2 L 288.6 535.9 L 201.8 535.9 C 191.2 535.9 175.8 541.2 167.4 547.7 L 20.3 661.4 C 12 667.9 7.8 681.5 11.1 691.5 L 69.8 871.1 C 73.1 881.2 84.4 889.4 95 889.4 L 906 889.4 C 916.6 889.4 927.9 881.2 931.1 871.1 L 988.8 691.5 C 992.1 681.4 988 667.9 979.6 661.4 Z "
              fill="rgb(22,83,110)"/>
    </g>
</svg>