<?xml version="1.0" standalone="no"?><!-- Generator: Gravit.io -->
<svg xmlns="http://www.w3.org/2000/svg" xmlns:xlink="http://www.w3.org/1999/xlink" style="isolation:isolate"
     viewBox="0 0 1000 1000" width="100%" height="100%">
    <defs>
        <clipPath id="_clipPath_Mas4XBe7IO7mQ9jhiIHBFPmpGIZvXcjq">
            <rect width="1000" height="1000"/>
        </clipPath>
    </defs>
    <g clip-path="url(#_clipPath_Mas4XBe7IO7mQ9jhiIHBFPmpGIZvXcjq)">
        <g>
            <path d=" M 745 353.2 L 598 353.2 L 598 59.2 L 402 59.2 L 402 353.2 L 255 353.2 L 500 598.2 L 745 353.2 L 745 353.2 Z  M 957.5 673.3 C 947.2 662.3 878.6 588.9 859 569.7 C 846 557 827.4 549.2 807.9 549.2 L 721.8 549.2 L 872 695.9 L 698.3 695.9 C 693.3 695.9 688.8 698.4 686.5 702.4 L 646.5 794.2 L 353.4 794.2 L 313.4 702.4 C 311.1 698.4 306.6 695.9 301.6 695.9 L 128 695.9 L 278.1 549.2 L 192.1 549.2 C 172.6 549.2 154.1 557 141 569.7 C 121.4 588.9 52.8 662.4 42.5 673.3 C 18.5 698.8 5.4 719.2 11.6 744.3 L 39 894.9 C 45.3 920.1 72.9 940.8 100.3 940.8 L 899.6 940.8 C 927.1 940.8 954.7 920.1 960.9 894.9 L 988.4 744.3 C 994.7 719.1 981.5 698.8 957.5 673.3 L 957.5 673.3 L 957.5 673.3 Z "
                  fill="rgb(22,83,110)"/>
        </g>
    </g>
</svg>