<?xml version="1.0" standalone="no"?><!-- Generator: Gravit.io -->
<svg xmlns="http://www.w3.org/2000/svg" xmlns:xlink="http://www.w3.org/1999/xlink" style="isolation:isolate" viewBox="0 0 512 512" width="100%" height="100%">
    <defs>
        <clipPath id="_clipPath_OqVTmLNzpcSKwCXz3ynehAeo0o24cjjx">
            <rect width="512" height="512"/>
        </clipPath>
    </defs>
    <g clip-path="url(#_clipPath_OqVTmLNzpcSKwCXz3ynehAeo0o24cjjx)">
        <path d=" M 209.495 430.674 L 151.981 373.112 L 291.185 233.973 C 335.722 267.264 399.002 264.088 439.537 223.616 C 483.948 179.142 483.948 107.031 439.537 62.557 C 395.063 18.083 322.952 18.083 278.494 62.557 C 237.991 103.092 234.814 166.371 268.154 210.972 L 36.286 442.872 C 30.314 448.845 30.616 458.756 36.986 465.109 C 43.339 471.463 53.314 471.844 59.286 465.872 L 82.985 442.11 L 117.485 476.672 C 123.838 483.026 134.131 483.026 140.484 476.672 C 146.854 470.319 146.854 460.027 140.484 453.673 L 105.984 419.111 L 128.984 396.111 L 186.498 453.673 C 192.851 460.027 203.144 460.027 209.497 453.673 C 215.85 447.32 215.848 437.027 209.495 430.674 Z  M 301.477 85.557 C 333.181 53.917 384.834 53.917 416.538 85.557 C 448.242 117.324 448.242 168.914 416.538 200.618 C 384.834 232.322 333.244 232.322 301.477 200.618 C 269.789 168.914 269.789 117.324 301.477 85.557 Z "
              fill="rgb(70,70,70)"/>
    </g>
</svg>