<svg xmlns="http://www.w3.org/2000/svg" viewBox="0 0 100 100">
    <path d=" M 50 36.853 C 42.704 36.853 36.776 42.747 36.776 49.995 C 36.776 57.243 42.704 63.147 50 63.147 C 57.286 63.147 63.214 57.243 63.214 49.995 C 63.204 42.747 57.286 36.853 50 36.853 L 50 36.853 L 50 36.853 Z  M 50 67.5 C 40.357 67.5 32.51 59.648 32.51 49.995 C 32.51 40.352 40.357 32.5 50 32.5 C 59.633 32.5 67.459 40.352 67.459 49.995 C 67.459 59.648 59.633 67.5 50 67.5 L 50 67.5 L 50 67.5 Z  M 62.653 61 L 64 40.758 L 44 34 L 33.184 52 L 44.52 65 L 62.653 61 Z  M 55.469 100 L 44.959 100 C 43.378 100 42.827 100 37.439 86.379 L 33.276 84.651 C 21.939 89.899 20.592 89.899 20.143 89.899 L 19.276 89.899 L 18.531 89.253 L 11.082 81.818 C 9.949 80.662 9.551 80.267 15.388 66.812 L 13.694 62.71 C 0 57.701 0 57.118 0 55.472 L 0 44.955 C 0 43.309 0 42.789 13.643 37.405 L 15.337 33.302 C 9.173 20.046 9.602 19.64 10.816 18.473 L 18.827 10.455 L 19.827 10.424 C 21.041 10.424 25.52 12.09 33.184 15.391 L 37.337 13.673 C 42.337 -0.01 42.949 0 44.52 0 L 55.031 0 C 56.602 0 57.163 0 62.551 13.631 L 66.724 15.349 C 78.051 10.101 79.408 10.101 79.857 10.101 L 80.724 10.101 L 81.469 10.736 L 88.918 18.161 C 90.051 19.327 90.439 19.723 84.612 33.177 L 86.316 37.301 C 100 42.289 100 42.862 100 44.517 L 100 55.024 C 100 56.639 100 57.201 86.337 62.585 L 84.653 66.698 C 90.786 79.881 90.378 80.298 89.235 81.475 L 81.163 89.545 L 80.163 89.576 C 78.959 89.576 74.48 87.9 66.837 84.599 L 62.653 86.317 C 57.653 100 57.082 100 55.469 100 L 55.469 100 L 55.469 100 Z " fill="rgb(22,83,110)"/>
</svg>