<svg xmlns="http://www.w3.org/2000/svg" viewBox="0 0 100 100">
    <path d=" M 55.469 100 L 44.959 100 C 43.378 100 42.827 100 37.439 86.379 L 33.276 84.651 C 21.939 89.899 20.592 89.899 20.143 89.899 L 19.276 89.899 L 18.531 89.253 L 11.082 81.818 C 9.949 80.662 9.551 80.267 15.388 66.812 L 13.694 62.71 C 0 57.701 0 57.118 0 55.472 L 0 44.955 C 0 43.309 0 42.789 13.643 37.405 L 15.337 33.302 C 9.173 20.046 9.602 19.64 10.816 18.473 L 18.827 10.455 L 19.827 10.424 C 21.041 10.424 25.52 12.09 33.184 15.391 L 37.337 13.673 C 42.337 -0.01 42.949 0 44.52 0 L 55.031 0 C 56.602 0 57.163 0 62.551 13.631 L 66.724 15.349 C 78.051 10.101 79.408 10.101 79.857 10.101 L 80.724 10.101 L 81.469 10.736 L 88.918 18.161 C 90.051 19.327 90.439 19.723 84.612 33.177 L 86.316 37.301 C 100 42.289 100 42.862 100 44.517 L 100 55.024 C 100 56.639 100 57.201 86.337 62.585 L 84.653 66.698 C 90.786 79.881 90.378 80.298 89.235 81.475 L 81.163 89.545 L 80.163 89.576 C 78.959 89.576 74.48 87.9 66.837 84.599 L 62.653 86.317 C 57.653 100 57.082 100 55.469 100 Z  M 46.051 95.658 L 54.347 95.658 C 55.296 93.679 57.357 88.431 59 83.911 L 59.337 83.016 L 66.888 79.902 L 67.704 80.256 C 72.204 82.214 77.52 84.38 79.592 85.046 L 85.418 79.236 C 84.673 77.143 82.439 72.019 80.408 67.698 L 80 66.823 L 83.122 59.211 L 83.969 58.877 C 88.51 57.097 93.776 54.889 95.745 53.879 L 95.745 45.704 C 93.755 44.746 88.51 42.716 83.99 41.081 L 83.102 40.758 L 79.959 33.146 L 80.337 32.292 C 82.276 27.835 84.418 22.587 85.112 20.462 L 79.276 14.631 C 77.388 15.297 72.112 17.609 67.653 19.681 L 66.827 20.067 L 59.276 16.963 L 58.939 16.11 C 57.153 11.569 54.939 6.29 53.939 4.342 L 45.653 4.342 C 44.694 6.321 42.643 11.569 41 16.089 L 40.673 16.984 L 33.143 20.108 L 32.327 19.754 C 27.816 17.797 22.49 15.631 20.408 14.964 L 14.592 20.785 C 15.327 22.878 17.571 27.991 19.592 32.313 L 20.01 33.198 L 16.867 40.8 L 16.02 41.133 C 11.48 42.914 6.224 45.121 4.255 46.121 L 4.255 54.306 C 6.245 55.264 11.48 57.305 16 58.95 L 16.878 59.273 L 20.02 66.865 L 19.643 67.718 C 17.704 72.165 15.561 77.413 14.867 79.527 L 20.724 85.369 C 22.602 84.692 27.878 82.381 32.337 80.308 L 33.173 79.923 L 40.704 83.047 L 41.041 83.901 C 42.837 88.441 45.051 93.7 46.051 95.658 Z  M 50 67.5 C 40.357 67.5 32.51 59.648 32.51 49.995 C 32.51 40.352 40.357 32.5 50 32.5 C 59.633 32.5 67.459 40.352 67.459 49.995 C 67.459 59.648 59.633 67.5 50 67.5 Z  M 50 36.853 C 42.704 36.853 36.776 42.747 36.776 49.995 C 36.776 57.243 42.704 63.147 50 63.147 C 57.286 63.147 63.214 57.243 63.214 49.995 C 63.204 42.747 57.286 36.853 50 36.853 Z " fill="rgb(22,83,110)"/>
</svg>