<?xml version="1.0" standalone="no"?><!-- Generator: Gravit.io -->
<svg xmlns="http://www.w3.org/2000/svg" xmlns:xlink="http://www.w3.org/1999/xlink" style="isolation:isolate"
     viewBox="0 0 1000 1000" width="100%" height="100%">
    <defs>
        <clipPath id="_clipPath_djABStvt4UJVnWevJSd9cSAiCRdLuFVD">
            <rect width="1000" height="1000"/>
        </clipPath>
    </defs>
    <g clip-path="url(#_clipPath_djABStvt4UJVnWevJSd9cSAiCRdLuFVD)">
        <path d=" M 874.4 430.7 L 682 623.1 C 636.8 668.3 576.7 693.7 512.4 694.8 C 448.4 695.9 387.6 672.7 341 629.4 L 431 532.6 C 452.4 552.5 480.6 563.2 510.2 562.7 C 539.9 562.1 567.7 550.5 588.4 529.8 L 782.3 335.9 C 803.6 314.6 815.3 286.1 815.3 255.7 C 815.3 225.3 803.6 196.8 782.3 175.5 C 760.9 154.2 732.5 142.4 702.1 142.4 C 671.7 142.4 643.2 154.1 621.9 175.5 L 586.4 211 C 560.6 236.8 518.8 236.8 492.9 211 L 492.9 211 C 467.1 185.2 467.1 143.4 492.9 117.5 L 528.4 82 C 624.2 -13.8 780.1 -13.7 875.9 82.1 C 971.5 177.3 969.9 335.2 874.4 430.7 Z "
              fill="rgb(22,83,110)"/>
        <path d=" M 508 883.7 L 474 917.6 C 378.5 1013.1 220.7 1014.7 125.1 919.1 C 29.3 823.4 29.1 667.4 125 571.6 L 318.9 377.7 C 364.1 332.5 424.2 307.1 488.5 306 C 552.5 304.9 613.3 328.1 659.9 371.4 L 569.9 468.2 C 548.5 448.3 520.3 437.6 490.7 438.1 C 461 438.7 433.2 450.3 412.5 471 L 218.6 665.1 C 197.3 686.4 185.5 714.9 185.5 745.3 C 185.5 775.7 197.2 804.2 218.6 825.5 C 240 846.8 268.4 858.6 298.8 858.6 C 329.2 858.6 357.7 846.9 379 825.5 L 414.5 790 C 440.3 764.2 482.1 764.2 508 790 L 508 790 C 533.9 815.9 533.9 857.8 508 883.7 Z "
              fill="rgb(22,83,110)"/>
    </g>
</svg>